# xmcd CD database file
#
# Track frame offsets:
#	150
#	17875
#	34183
#	48615
#	73468
#	96965
#	114045
#	132618
#	147595
#	165650
#	191368
#	207925
#
# Disc length: 3039 seconds
#
# Revision: 1
# Processed by: cddbd v1.5.1PL0 Copyright (c) Steve Scherf et al.
# Submitted via: CDex 1.51
#
DISCID=b60bdd0c
DTITLE=Tab Benoit  - Standing On The Bank
DYEAR=1995
DGENRE=Blues
TTITLE0=Make Your Mind Up
TTITLE1=Me And My Guitar
TTITLE2=Downtown
TTITLE3=Standing On The Bank
TTITLE4=Matchbox Blues
TTITLE5=Rainy Day Blues
TTITLE6=You Got What I Want
TTITLE7=The Seventh Son
TTITLE8=If I Could Quit You
TTITLE9=Laundromat Blues
TTITLE10=Going Down
TTITLE11=Still Going Down The Road
EXTD=YEAR: 1995
EXTT0=
EXTT1=
EXTT2=
EXTT3=
EXTT4=
EXTT5=
EXTT6=
EXTT7=
EXTT8=
EXTT9=
EXTT10=
EXTT11=
PLAYORDER=
